<?xml version="1.0" encoding="utf-8"?>
<svg viewBox="0 0 500 500" xmlns="http://www.w3.org/2000/svg">
  <g id="Camada_1-2" data-name="Camada 1" transform="matrix(0.3240640163421631, 0, 0, 0.3240640163421631, 94.65874481201172, 228.5231781005859)" style="">
    <g>
      <polygon class="cls-10" points="0 15.34 17.79 241.71 160.24 229.97 145.77 207.29 171.06 201.2 185.58 202.13 199.35 157.3 195.11 118.14 185.87 0 0 15.34" style="fill: rgb(253, 165, 2); stroke-width: 0px;"/>
      <polygon class="cls-6" points="168.66 229.41 206.19 226.02 199.35 161.66 182.77 199.32 159.82 206.35 146.7 204.47 148.88 211.15 168.66 229.41" style="fill: rgb(255, 255, 255); stroke-width: 0px;"/>
      <path class="cls-16" d="m160.24,229.97c-4.9-5.12-10.39-9.62-15.53-14.49-3.37-3.2-6.67-6.52-10.33-9.35-5.19-4.01-7.02-9.42-7.22-15.54-.25-7.89-.28-15.79-.74-23.68-.22-3.71-.43-7.42-1.4-11.03-2.63-9.71-8.72-13.98-18.34-13.75-9.63.23-19.23,1.38-28.85,2.06-1.86.13-2.22,1.17-2.41,2.73-.81,6.92-1.71,13.82-2.56,20.74-1.34,10.94-2.65,21.88-3.98,32.82-.42,3.44-.63,3.68-4.02,3.96-12.04.98-24.09,1.95-36.13,2.91-2.6.21-2.65.18-2.32-2.45,1.64-13.35,3.32-26.7,4.97-40.06,1.39-11.28,2.74-22.57,4.15-33.86,1.58-12.54,3.22-25.07,4.81-37.6,1.42-11.16,2.79-22.33,4.19-33.49.61-4.83,1.29-9.65,1.83-14.48.2-1.77.77-2.52,2.74-2.67,22.13-1.65,44.25-3.46,66.38-5.14,9.84-.75,19.67-1.86,29.56-.87,5.46.55,10.79,1.6,15.8,3.91,7.52,3.47,12.93,9.1,15.94,16.76,4.77,12.12,5.53,24.63,2.5,37.29-2.62,10.97-9.29,18.76-19.34,23.77-3.54,1.76-7.3,2.93-11.1,4.16.56,1.08,1.58,1.03,2.39,1.3,4.54,1.48,7.86,4.43,10.25,8.46,2.59,4.37,3.89,9.15,4.36,14.19.94,10.06,1.12,20.16,1.68,30.24.38,6.91,1.74,13.6,5.23,19.68.7,1.21,1.15,2.94,3.22,2.61,2.16-.34,4.22-.42,5.39-2.97,4.9-10.66,10-21.22,15.01-31.83.5-1.05.87-2.16,1.72-3,.74,5.03,1.18,10.09,1.22,15.18-.78.1-.77.6-.61,1.18-4.06,8.47-8.2,16.91-12.12,25.45-1.01,2.2-2.29,3.23-4.66,3.37-7.41.46-14.8,1.1-22.21,1.54-3.22.19-6.34,1.19-9.63.61-.1.27-.21.53-.31.8,7,6.45,14,12.9,21.1,19.44-1.86.73-8.34,1.34-10.69,1.1Zm-20.17-141.62c-.04-.58-.09-1.16-.12-1.74-.49-7.77-4.32-12.39-11.83-14.37-2.96-.78-5.97-.99-8.97-.78-10.64.73-21.26,1.61-31.9,2.37-1.45.1-2.08.68-2.23,2.06-.23,2.07-.55,4.14-.8,6.21-1.16,9.54-2.33,19.09-3.44,28.64-.31,2.67-.22,2.72,2.35,2.52,9.25-.72,18.51-1.43,27.76-2.22,4.27-.37,8.55-.8,12.71-1.95,11.1-3.07,16.8-10.26,16.48-20.72Z" style="fill: rgb(3, 2, 0); stroke-width: 0px;"/>
      <path class="cls-3" d="m140.07,88.35c.33,10.46-5.38,17.65-16.47,20.72-4.16,1.15-8.43,1.58-12.71,1.95-9.25.8-18.5,1.5-27.76,2.22-2.58.2-2.66.15-2.35-2.52,1.11-9.55,2.28-19.09,3.44-28.64.25-2.07.58-4.13.8-6.21.15-1.38.78-1.96,2.23-2.06,10.64-.75,21.26-1.64,31.9-2.37,3-.21,6.01,0,8.97.78,7.51,1.98,11.34,6.59,11.83,14.37.04.58.08,1.16.12,1.74Z" style="fill: rgb(250, 163, 0); stroke-width: 0px;"/>
    </g>
  </g>
</svg>